<svg width="9" height="17" viewBox="0 0 9 17" fill="none" xmlns="http://www.w3.org/2000/svg">
<path d="M0.833788 8.89243H2.59581V16.1529C2.59581 16.2217 2.62314 16.2877 2.67177 16.3363C2.7204 16.385 2.78635 16.4123 2.85512 16.4123H5.84355C5.91232 16.4123 5.97827 16.385 6.0269 16.3363C6.07553 16.2877 6.10286 16.2217 6.10286 16.1529V8.92646H8.1295C8.19305 8.92636 8.25436 8.90291 8.30177 8.86057C8.34918 8.81823 8.3794 8.75994 8.38669 8.69678L8.69488 6.02357C8.69907 5.98726 8.69556 5.95047 8.68455 5.91562C8.67354 5.88077 8.6553 5.84864 8.63102 5.82133C8.60674 5.79403 8.57696 5.77216 8.54365 5.75717C8.51033 5.74218 8.47422 5.7344 8.43769 5.73434H6.09966V4.05959C6.09966 3.55451 6.37174 3.29825 6.90736 3.29825H8.43344C8.50222 3.29825 8.56817 3.27091 8.6168 3.22226C8.66543 3.1736 8.69275 3.10761 8.69275 3.0388V0.585691C8.69333 0.517243 8.66684 0.451343 8.61907 0.402348C8.57129 0.353352 8.50609 0.325232 8.43769 0.324112L6.33241 0.324112H6.2357C5.26625 0.327535 4.33052 0.680516 3.60011 1.31833C3.25544 1.6197 2.99099 2.00202 2.83054 2.43094C2.67008 2.85986 2.61864 3.32195 2.68083 3.77568V5.7354H0.830593C0.76182 5.7354 0.695867 5.76274 0.647237 5.81139C0.598608 5.86005 0.571289 5.92604 0.571289 5.99486V8.63298C0.571286 8.66732 0.578094 8.70132 0.591324 8.73301C0.604555 8.7647 0.623947 8.79344 0.648364 8.81758C0.672782 8.84171 0.701742 8.86076 0.733572 8.87361C0.765402 8.88646 0.799468 8.89285 0.833788 8.89243Z" fill="white"/>
</svg>
