<svg width="13" height="9" viewBox="0 0 13 9" fill="none" xmlns="http://www.w3.org/2000/svg">
<path d="M4.39258 8.8208L0.478516 4.93018C0.369141 4.8208 0.314453 4.68018 0.314453 4.5083C0.314453 4.33643 0.369141 4.1958 0.478516 4.08643L1.3457 3.24268C1.45508 3.11768 1.58789 3.05518 1.74414 3.05518C1.91602 3.05518 2.06445 3.11768 2.18945 3.24268L4.81445 5.86768L10.4395 0.242676C10.5645 0.117676 10.7051 0.0551758 10.8613 0.0551758C11.0332 0.0551758 11.1738 0.117676 11.2832 0.242676L12.1504 1.08643C12.2598 1.1958 12.3145 1.33643 12.3145 1.5083C12.3145 1.68018 12.2598 1.8208 12.1504 1.93018L5.23633 8.8208C5.12695 8.9458 4.98633 9.0083 4.81445 9.0083C4.64258 9.0083 4.50195 8.9458 4.39258 8.8208Z" fill="#999999"/>
</svg>
