<svg width="13" height="10" viewBox="0 0 13 10" fill="none" xmlns="http://www.w3.org/2000/svg">
<path d="M4.19238 9.32092L0.27832 5.4303C0.168945 5.32092 0.114258 5.1803 0.114258 5.00842C0.114258 4.83655 0.168945 4.69592 0.27832 4.58655L1.14551 3.7428C1.25488 3.6178 1.3877 3.5553 1.54395 3.5553C1.71582 3.5553 1.86426 3.6178 1.98926 3.7428L4.61426 6.3678L10.2393 0.742798C10.3643 0.617798 10.5049 0.555298 10.6611 0.555298C10.833 0.555298 10.9736 0.617798 11.083 0.742798L11.9502 1.58655C12.0596 1.69592 12.1143 1.83655 12.1143 2.00842C12.1143 2.1803 12.0596 2.32092 11.9502 2.4303L5.03613 9.32092C4.92676 9.44592 4.78613 9.50842 4.61426 9.50842C4.44238 9.50842 4.30176 9.44592 4.19238 9.32092Z" fill="#40BFFF"/>
</svg>
