<svg width="18" height="13" viewBox="0 0 18 13" fill="none" xmlns="http://www.w3.org/2000/svg">
<path d="M17.8627 1.53895C17.2128 1.79428 16.5254 1.96403 15.8218 2.04296C16.5636 1.64691 17.1184 1.01962 17.3808 0.279969C16.6871 0.650397 15.9281 0.911475 15.1368 1.05195C14.6512 0.584038 14.0203 0.25855 13.3264 0.117836C12.6325 -0.0228783 11.9076 0.0276939 11.2461 0.262973C10.5845 0.498253 10.017 0.907345 9.61719 1.43702C9.21743 1.9667 9.004 2.59244 9.00466 3.23283C9.00207 3.47728 9.0298 3.72123 9.08733 3.96014C7.67787 3.89784 6.29888 3.56843 5.04051 2.99345C3.78213 2.41847 2.67271 1.61087 1.78477 0.623425C1.32876 1.32511 1.18752 2.15707 1.3899 2.94935C1.59229 3.74164 2.12304 4.43446 2.87372 4.8863C2.31304 4.8729 1.76417 4.73833 1.27337 4.49393V4.52902C1.27413 5.26513 1.55632 5.97857 2.07252 6.54942C2.58872 7.12028 3.30746 7.51375 4.10794 7.66371C3.80471 7.73611 3.49214 7.77187 3.17844 7.77004C2.9533 7.77372 2.72839 7.75554 2.50759 7.71581C2.73624 8.34844 3.17696 8.90178 3.76914 9.29973C4.36132 9.69769 5.07588 9.92072 5.81459 9.93816C4.56194 10.8193 3.01776 11.2977 1.42809 11.2971C1.14467 11.2989 0.861424 11.2843 0.580078 11.2535C2.19952 12.1929 4.08651 12.69 6.01301 12.6847C7.33964 12.6931 8.65489 12.464 9.88236 12.0108C11.1098 11.5577 12.2251 10.8895 13.1633 10.045C14.1015 9.20052 14.844 8.19663 15.3476 7.09163C15.8512 5.98663 16.1059 4.80256 16.097 3.60818C16.097 3.46676 16.097 3.33065 16.084 3.19561C16.7839 2.74544 17.3867 2.18402 17.8627 1.53895Z" fill="white"/>
</svg>
