<svg width="28" height="9" viewBox="0 0 28 9" fill="none" xmlns="http://www.w3.org/2000/svg">
<path d="M25.1555 8.82007L24.9036 7.52515H22.1696L21.7206 8.82007H19.4785L22.6855 0.755127C22.7601 0.555136 22.8968 0.384108 23.0754 0.267334C23.2541 0.15056 23.4655 0.0942403 23.6786 0.106201H25.4076L27.1295 8.82104L25.1555 8.82007ZM23.9196 2.47583L22.7896 5.73706H24.5555L23.9196 2.47583ZM16.6326 2.59009C16.6326 3.54209 19.6326 3.74581 19.6326 5.93481C19.6326 8.04281 17.4176 8.81812 15.9506 8.81812C15.1168 8.8319 14.2895 8.66963 13.5226 8.34204L13.8425 6.4519C14.7225 7.1719 17.3916 7.37713 17.3916 6.23413C17.3916 5.09113 14.4166 5.06394 14.4166 2.88794C14.4166 0.575939 16.9506 0.0998535 18.0166 0.0998535C18.6769 0.116781 19.33 0.240912 19.9506 0.467041L19.6436 2.27612C18.7256 1.76412 16.6306 1.64199 16.6306 2.59399L16.6326 2.59009ZM10.0486 8.82007L11.3926 0.104736H13.5436L12.1996 8.82007H10.0486ZM4.8916 8.82007L3.02551 1.25806C3.35516 1.46395 3.66968 1.69324 3.96655 1.94409C4.86357 2.71168 5.54609 3.69857 5.94751 4.80884L6.19055 6.09985L8.24158 0.106201H10.5565L7.13452 8.82104L4.8916 8.82007ZM1.09753 0.343994L0.997559 0.314209L1.09753 0.343994ZM0.877563 0.279053L0.82959 0.265869L0.877563 0.279053ZM1.40662 0.448975L1.27856 0.404053L1.40662 0.448975ZM2.89758 1.17407C2.83092 1.13274 2.76418 1.09293 2.69751 1.05493C2.76151 1.09893 2.82751 1.13696 2.89551 1.17896L2.89758 1.17407ZM2.38354 0.884033C2.32554 0.854033 2.26562 0.822189 2.20862 0.794189C2.26362 0.827189 2.32259 0.858916 2.38159 0.888916L2.38354 0.884033ZM1.84851 0.627197L1.73059 0.575928L1.84851 0.627197Z" fill="#494CA3"/>
</svg>
